<?xml version="1.0" encoding="UTF-8"?>
<!DOCTYPE svg PUBLIC "-//W3C//DTD SVG 1.1//EN" "http://www.w3.org/Graphics/SVG/1.1/DTD/svg11.dtd">
<!-- Creator: CorelDRAW 2018 (64-Bit) -->
<svg xmlns="http://www.w3.org/2000/svg" xml:space="preserve" width="210mm" height="297mm" version="1.1" style="shape-rendering:geometricPrecision; text-rendering:geometricPrecision; image-rendering:optimizeQuality; fill-rule:evenodd; clip-rule:evenodd"
viewBox="0 0 21000 29700"
 xmlns:xlink="http://www.w3.org/1999/xlink">
 <defs>
  <style type="text/css">
   <![CDATA[
    .fil3 {fill:#FEFEFE}
    .fil2 {fill:#313131}
    .fil0 {fill:#333333}
    .fil1 {fill:#383837}
   ]]>
  </style>
   <clipPath id="id0">
    <rect x="1608.51" y="3181.44" width="18062.22" height="18062.22"/>
   </clipPath>
 </defs>
 <g id="Слой_x0020_1">
  <metadata id="CorelCorpID_0Corel-Layer"/>
  <g style="clip-path:url(#id0)">
   <image id="logom.png" x="1608.51" y="3181.44" width="18062.22" height="18062.22" xlink:href="1.svg_Images\1.svg_ImgID1.png"/>
  </g>
  <g id="_1495671803024">
   <path class="fil0" d="M1608.51 21243.66l16933.33 0c0,-1017.29 32.53,-1960.12 -155.81,-2807.52 -121.21,-545.37 -285.02,-1197.38 -695.76,-1526.74 -1089.15,-873.33 -2250.95,-1135.87 -3656.57,-1529.26l-1136.3 -345.37c0,719.54 153.75,934.72 -144.9,1760.11 -192.03,530.73 -720.24,1395.29 -1100.78,1862.55 -82.19,100.92 -137.02,175.72 -227.35,266.54 -289.42,291 -289.04,369.33 -743.93,737.74 -176.43,142.9 -405.07,311.85 -605.26,417.78 -1245.61,-659.09 -2754.45,-2764.94 -2855.76,-4058.69 -28.42,-362.99 33.53,-677.18 33.53,-986.03l-2285.59 677.74c-1060.07,293.05 -1724.86,587.45 -2512.52,1191.64 -201.29,154.4 -202.22,193.83 -317.33,423.51 -440.94,879.77 -518.01,1863.5 -529,2885.33l0 1030.67z"/>
   <path class="fil0" d="M13144.34 9778.38c86.66,-124.71 306.39,-977.82 635,-881.94 432.4,126.16 224.04,1224 -193.41,1605.75 -299.36,273.75 -466.04,928.59 -795.93,1497.13 -527.58,909.25 -1024.07,1650.59 -2169.61,1852.05 -836.89,147.19 -1589.05,-11.86 -2253.96,-529.79 -648.6,-505.23 -1251.06,-1720.72 -1556.76,-2464.91 -197.98,-481.93 -464.18,-353.19 -635.95,-1127.94 -149.65,-674.97 222.03,-1399.1 711.48,-217.59l120.81 267.24c-13.05,-585.71 -572.79,-2083.58 -191.63,-2766.91 296.62,-531.78 672.99,-986.95 1283.91,-1151.43 334.73,-90.11 326.43,36.24 520.97,223.71 1031.84,994.35 2278.96,1358.53 3702.86,1553.52 98.88,13.54 254.18,16.75 389.02,34.32 163.07,21.24 567.97,60.68 750.7,60.68 -12.61,565.95 -317.5,1828.95 -317.5,2046.11zm-3265.27 -6596.94l508.39 0c542.39,23.61 1065.66,123.96 1497.24,307.14 1388.08,589.15 2282.7,1630.47 2282.7,3220.64 0,419.35 -14.18,1640.46 -141.11,1905 415.32,0 564.44,286.68 564.44,670.27 0,1271.73 -598.99,1505.88 -736.94,1838.34 -404.25,974.21 -982.36,1903.57 -1775.61,2598.84 -670.76,587.92 -1303.95,748.66 -2179.39,748.66 -1803.74,0 -2982.94,-1939 -3617.69,-3367.31 -85.24,-191.82 -154.09,-187.17 -268.97,-330.76 -470.96,-588.66 -773.16,-2158.04 76.66,-2158.04 0,-543.56 -201.07,-1229.84 -100.91,-2182.3 140.42,-1335.36 789.41,-2218.58 1934.95,-2792.27 540.42,-270.65 1245.49,-427.69 1956.24,-458.21z"/>
   <path class="fil0" d="M9687.12 16481.16c0,173.18 -740.83,1774.93 -740.83,1975.56 0,158.81 798.9,919 1128.89,1093.61 258.41,-173.05 456.96,-334.36 679.13,-555.59 126.34,-125.81 184.38,-199.09 298.18,-336.85 260.18,-314.95 76.08,-461.15 -261.63,-1304.92l-362.91 -907.09c272.31,-144.09 629.02,-568.67 776.11,-846.66 -100.61,-190.15 -400.78,-564.45 -635,-564.45 -1119.87,0 -997.79,-109.16 -1402.37,290.96 -157.96,156.23 -282.41,204.8 -155.72,417.49 92.92,155.97 187.45,268.48 314.39,394.14 44.51,44.06 361.76,330.73 361.76,343.8z"/>
   <polygon class="fil1" points="7006.01,9778.38 7006.01,9813.66 7047.17,9784.26 "/>
   <polygon class="fil2" points="13144.34,9778.38 13109.06,9778.38 13138.46,9819.54 "/>
  </g>
  <g id="_1495673938656">
   <path class="fil3" d="M6088.79 8614.22c-849.82,0 -547.62,1569.38 -76.66,2158.04 114.88,143.59 183.73,138.94 268.97,330.76 634.75,1428.31 1813.95,3367.31 3617.69,3367.31 875.44,0 1508.63,-160.74 2179.39,-748.66 793.25,-695.27 1371.36,-1624.63 1775.61,-2598.84 137.95,-332.46 736.94,-566.61 736.94,-1838.34 0,-383.59 -149.12,-670.27 -564.44,-670.27 126.93,-264.54 141.11,-1485.65 141.11,-1905 0,-1590.17 -894.62,-2631.49 -2282.7,-3220.64 -431.58,-183.18 -954.85,-283.53 -1497.24,-307.14l-508.39 0c-710.75,30.52 -1415.82,187.56 -1956.24,458.21 -1145.54,573.69 -1794.53,1456.91 -1934.95,2792.27 -100.16,952.46 100.91,1638.74 100.91,2182.3z"/>
   <path class="fil3" d="M1608.51 21243.66l16933.33 0c0,-1017.29 32.53,-1960.12 -155.81,-2807.52 -121.21,-545.37 -285.02,-1197.38 -695.76,-1526.74 -1089.15,-873.33 -2250.95,-1135.87 -3656.57,-1529.26l-1136.3 -345.37c0,719.54 153.75,934.72 -144.9,1760.11 -192.03,530.73 -720.24,1395.29 -1100.78,1862.55 -82.19,100.92 -137.02,175.72 -227.35,266.54 -289.42,291 -289.04,369.33 -743.93,737.74 -176.43,142.9 -405.07,311.85 -605.26,417.78 -1245.61,-659.09 -2754.45,-2764.94 -2855.76,-4058.69 -28.42,-362.99 33.53,-677.18 33.53,-986.03l-2285.59 677.74c-1060.07,293.05 -1724.86,587.45 -2512.52,1191.64 -201.29,154.4 -202.22,193.83 -317.33,423.51 -440.94,879.77 -518.01,1863.5 -529,2885.33l0 1030.67z"/>
   <path class="fil3" d="M9687.12 16481.16c0,173.18 -740.83,1774.93 -740.83,1975.56 0,158.81 798.9,919 1128.89,1093.61 258.41,-173.05 456.96,-334.36 679.13,-555.59 126.34,-125.81 184.38,-199.09 298.18,-336.85 260.18,-314.95 76.08,-461.15 -261.63,-1304.92l-362.91 -907.09c272.31,-144.09 629.02,-568.67 776.11,-846.66 -100.61,-190.15 -400.78,-564.45 -635,-564.45 -1119.87,0 -997.79,-109.16 -1402.37,290.96 -157.96,156.23 -282.41,204.8 -155.72,417.49 92.92,155.97 187.45,268.48 314.39,394.14 44.51,44.06 361.76,330.73 361.76,343.8z"/>
   <polygon class="fil3" points="7006.01,9778.38 7006.01,9813.66 7047.17,9784.26 "/>
   <polygon class="fil3" points="13144.34,9778.38 13109.06,9778.38 13138.46,9819.54 "/>
  </g>
 </g>
</svg>
