<?xml version="1.0" encoding="UTF-8"?>
<!DOCTYPE svg PUBLIC "-//W3C//DTD SVG 1.1//EN" "http://www.w3.org/Graphics/SVG/1.1/DTD/svg11.dtd">
<!-- Creator: CorelDRAW 2018 (64-Bit) -->
<svg xmlns="http://www.w3.org/2000/svg" xml:space="preserve" width="210mm" height="297mm" version="1.1" style="shape-rendering:geometricPrecision; text-rendering:geometricPrecision; image-rendering:optimizeQuality; fill-rule:evenodd; clip-rule:evenodd"
viewBox="0 0 21000 29700"
 xmlns:xlink="http://www.w3.org/1999/xlink">
 <defs>
  <style type="text/css">
   <![CDATA[
    .fil0 {fill:#FEFEFE}
   ]]>
  </style>
   <clipPath id="id0">
    <rect x="536.67" y="3619.94" width="18062.22" height="18062.22"/>
   </clipPath>
 </defs>
 <g id="Слой_x0020_1">
  <metadata id="CorelCorpID_0Corel-Layer"/>
  <g style="clip-path:url(#id0)">
   <image id="logow.png" x="536.67" y="3619.94" width="18062.22" height="18062.22" xlink:href="2.svg_Images\2.svg_ImgID1.png"/>
  </g>
  <g id="_2099937869104">
   <path class="fil0" d="M4911.11 7077.16l38.24 1337.6c17.84,222.91 67.6,371.29 67.6,637.96 -871.24,0 -523.85,1648.4 -60.46,2177.13 286.95,327.41 138.55,100.49 131.22,645.29 -11.56,858.41 -405.64,1831.54 -1156.71,2335.8l-572.11 309.83c436.19,101.62 902.01,388.06 1728.61,388.06 766.6,0 1161.59,-48.11 1778.69,-479.09 136.59,-95.39 248.36,-213.39 373.26,-297.02 668.9,447.92 1406.08,1000.03 2307.57,684.79 696.92,-243.69 822.84,-474.53 1220.2,-684.79 78.53,52.58 97.61,86.31 171.14,146.36 865.87,707.03 1828.4,757.85 2898.06,488.66l811.36 -282.25c-596.21,-138.9 -1107.97,-666.28 -1376,-1199.27 -188.96,-375.75 -347.34,-941.75 -352.82,-1375.79 -7.1,-562.09 -164.31,-325.68 126.74,-685.07 375.9,-464.16 659.46,-1432.81 345.71,-1974.6 -89.73,-154.95 -205.52,-198.04 -436.96,-198.04 132.25,-275.63 141.11,-1547.89 141.11,-1975.56 0,-2127.77 -1941.27,-3457.22 -3845.28,-3457.22l-493.89 0c-1050.83,0 -2108.72,465.49 -2673.28,960.33 -98.27,86.12 -148.91,114.38 -246.57,212.04 -565.2,565.17 -925.43,1427.74 -925.43,2284.85z"/>
   <path class="fil0" d="M536.67 21682.16l16933.33 0c0,-1308.57 50.97,-2680.26 -470.17,-3798.44 -177.32,-380.46 -168.97,-377.95 -451.99,-606.34 -457.67,-369.33 -518.52,-407.32 -1100.43,-698.74 -176.69,-88.49 -311.96,-148.14 -487.14,-218.41l-2711.38 -886.96c-4.63,207.76 -91.56,640.89 -133.67,818.83 -155.26,656.13 -351.67,1104.47 -712.83,1650.78 -318.84,482.31 -740.08,843.62 -1204.57,1194.32 -148.46,112.09 -1065.51,694.5 -1194.48,694.5 -123.64,0 -1048.98,-584.33 -1194.5,-694.49 -635.72,-481.23 -972,-806.37 -1388.12,-1469.37 -316.36,-504.06 -649.75,-1602.44 -662.94,-2194.57l-1609.08 507.59c-994.41,330.64 -2086.51,674.25 -2863.93,1439.95 -287.69,283.35 -527.45,1124.05 -610.66,1541.29 -105,526.5 -131.69,1096.94 -137.44,1699.93l0 1020.13z"/>
   <polygon class="fil0" points="5934.17,10216.88 5934.17,10252.16 5975.33,10222.76 "/>
   <polygon class="fil0" points="12072.5,10216.88 12037.22,10216.88 12066.62,10258.04 "/>
  </g>
 </g>
</svg>
